<?xml version="1.0" standalone="no"?>
<!DOCTYPE svg PUBLIC "-//W3C//DTD SVG 20010904//EN"
 "http://www.w3.org/TR/2001/REC-SVG-20010904/DTD/svg10.dtd">
<svg version="1.0" xmlns="http://www.w3.org/2000/svg"
 width="512.000000pt" height="512.000000pt" viewBox="0 0 512.000000 512.000000"
 preserveAspectRatio="xMidYMid meet">

<g transform="translate(0.000000,512.000000) scale(0.100000,-0.100000)"
fill="#000000" stroke="none">
<path d="M2578 1419 c-16 -9 -18 -28 -18 -159 0 -83 -3 -150 -6 -150 -3 0 -50
36 -105 81 -75 60 -104 79 -119 74 -11 -4 -20 -9 -19 -13 1 -14 232 -192 249
-192 45 0 50 21 50 201 0 93 -3 169 -7 169 -5 0 -16 -5 -25 -11z"/>
</g>
</svg>
